<svg width="1301" height="1285" xmlns="http://www.w3.org/2000/svg" fill="none">

 <g>
  <title>Layer 1</title>
  <path id="svg_1" fill="#FD8CBF" d="m1179.63,446.04l-19.47,-379.148l-991.521,-40.0404l-17.053,347.0924l228.42,16.028l217.682,15.248l103.681,7.29l478.261,33.53z"/>
  <path id="svg_2" fill="#36C8ED" d="m121.404,805.097l39.726,448.543l1012.83,-69.4l19.86,-397.842l-1072.416,18.699z"/>
  <path id="svg_3" fill="#FFEDA1" d="m923.782,484.272l-536.958,-29.773l-385.87478,-21.398l72.07858,312.395l1190.5322,-16.028l37.39,-224.272l-377.168,-20.924z"/>
  <path stroke="null" id="svg_6" fill="#333333" d="m840.83299,543.63204c-46.98971,-22.51937 -106.68057,-36.97657 -140.11857,-43.77625c-1.81027,-0.35771 -3.49408,-1.35476 -4.8398,-2.86975c-1.34705,-1.51338 -2.29744,-3.47834 -2.73137,-5.64401c-0.43526,-2.16729 -0.33543,-4.44302 0.28751,-6.5407c0.62161,-2.0993 1.73839,-3.92669 3.21056,-5.25878c19.72258,-18.68656 38.01425,-39.50318 54.65539,-62.19574c54.13627,-71.20478 181.03458,-74.44681 196.25279,0c15.21954,74.44681 -37.4725,159.74785 -106.71651,126.28523z"/>
  <path stroke="null" id="svg_7" fill="#333333" d="m611.29361,471.28584c-32.8155,6.87674 -91.73714,21.31102 -138.00677,44.26185c-68.1462,33.83382 -119.70312,-52.36763 -104.8269,-127.50443c14.87622,-75.13516 139.79323,-71.99301 193.06321,0c16.38088,22.88046 34.38046,43.86744 53.78115,62.70565c1.44961,1.34524 2.54927,3.19453 3.16267,5.31548c0.61209,2.12259 0.71039,4.42193 0.28311,6.61326c-0.42859,2.19133 -1.36311,4.17645 -2.68952,5.70661c-1.32641,1.5318 -2.98442,2.53991 -4.76694,2.90158z"/>
  <path stroke="null" id="svg_5" fill="#333333" d="m833.55836,754.10573c-14.95046,27.41175 -37.32533,49.10114 -64.04504,62.08682c-80.23108,39.98492 -160.72336,39.84173 -240.51808,-1.80177c-23.17721,-12.03621 -42.93391,-30.688 -57.17118,-53.97802c-20.14457,-32.63125 -15.49005,-59.71401 14.66268,-82.00683c27.75822,-20.58651 59.47654,-30.21412 91.89085,-36.37968c24.23449,-4.74392 49.03515,-6.11953 73.53082,-9.01225c48.94756,2.13417 96.45935,10.05546 141.18719,32.10964c10.54619,5.20586 20.46833,11.80098 29.54277,19.63705c21.92756,18.97225 25.36527,43.02082 10.91999,69.34503z"/>
  <path id="svg_4" fill="#000000" d="m987.097,519.776c0,-0.417 0,-0.834 0,-1.252l0,-0.723c0,-0.89 0,-1.753 0,-2.783l0,-1.641c0,-0.529 0,-1.058 0,-1.586c0,-0.529 0,-1.753 0,-2.616c0,-1.503 0,-3.033 0,-4.563c0,-0.752 0,-1.503 0,-2.226c0,-2.208 -0.055,-4.406 -0.167,-6.595c0,-2.56 -0.222,-5.12 -0.361,-7.652c0,-0.334 0,-0.668 0,-0.974c0,-1.753 -0.195,-3.478 -0.334,-5.231c0,-0.306 0,-0.612 0,-0.89c0,-0.279 0,-1.113 0,-1.67c0,-0.556 0,-0.306 0,-0.501c0.013,-0.157 0.013,-0.315 0,-0.473c0,-1.558 -0.223,-3.116 -0.362,-4.674c0,-0.557 0,-1.085 0,-1.642c0,-0.556 0,-0.362 0,-0.557c-0.139,-1.78 -0.306,-3.589 -0.501,-5.37l0,-0.946l0,-0.195l-0.751,-7.067c0,-0.863 -0.222,-1.725 -0.306,-2.588c-0.083,-0.863 0,-1.197 -0.222,-1.781c-0.223,-0.584 -0.195,-1.725 -0.306,-2.588l-0.334,-2.532c0.003,-0.046 0.003,-0.093 0,-0.139c-0.195,-1.419 -0.362,-2.782 -0.557,-4.257c-0.013,-0.148 -0.013,-0.297 0,-0.445l-0.333,-2.254c-0.167,-1.252 -0.334,-2.477 -0.529,-3.701c0,-0.334 0,-0.612 0,-0.946l0,-0.195l-0.167,-1.057l0,-0.529l0,-0.501l-0.167,-1.224l-0.584,-3.812c-0.027,-0.185 -0.027,-0.372 0,-0.557c0,-0.333 -0.139,-0.695 -0.195,-1.057c0,-0.807 -0.25,-1.614 -0.389,-2.449c-0.25,-1.447 -0.501,-2.949 -0.751,-4.424c0,-0.361 0,-0.751 -0.195,-1.113l-0.195,-1.224c0,-0.418 -0.139,-0.863 -0.222,-1.252c-0.195,-1.113 -0.362,-2.198 -0.557,-3.284l-0.584,-3.227l-0.667,-3.618c0,-0.667 -0.251,-1.307 -0.362,-1.975l-0.167,-0.863l0,-0.389c-0.223,-1.253 -0.473,-2.532 -0.723,-3.785c0,-0.222 0,-0.473 -0.139,-0.723l-0.418,-2.226c-0.584,-3.784 -1.196,-7.596 -1.808,-11.408c-1.196,-7.485 -2.392,-14.943 -3.561,-22.428c-0.012,-0.157 -0.012,-0.315 0,-0.473c-0.584,-3.589 -1.14,-7.179 -1.697,-10.768c-0.556,-3.59 -1.085,-7.235 -1.641,-10.824l0,-0.473c0,-0.473 -0.139,-0.918 -0.222,-1.391c0.013,-0.065 0.013,-0.131 0,-0.195l-1.781,0c-0.25,-1.391 -0.556,-2.783 -0.862,-4.174c0,-0.445 -0.223,-0.863 -0.362,-1.308c-0.222,-0.946 -0.473,-1.92 -0.751,-2.782c-0.139,-0.473 -0.278,-0.974 -0.445,-1.447c-0.278,-0.974 -0.584,-1.92 -0.918,-2.783c-0.167,-0.445 -0.306,-0.89 -0.445,-1.335c-0.473,-1.336 -1.002,-2.783 -1.53,-3.979c0,-0.39 -0.334,-0.78 -0.501,-1.197c-0.39,-0.946 -0.807,-1.864 -1.224,-2.782l-0.835,-1.781l-1.057,-2.226c-0.306,-0.64 -0.64,-1.28 -0.973,-1.92c-0.334,-0.64 -0.696,-1.336 -1.085,-1.976c-0.39,-0.64 -0.696,-1.363 -1.085,-2.031c-0.39,-0.668 -0.278,-0.501 -0.445,-0.751c-0.974,-1.753 -2.031,-3.506 -3.116,-5.204c-0.25,-0.417 -0.473,-0.834 -0.751,-1.224c-0.529,-0.863 -1.113,-1.725 -1.669,-2.588l-0.668,-1.029l-1.892,-2.783c-0.067,-0.107 -0.141,-0.209 -0.222,-0.306c-2.281,-3.228 -4.646,-6.428 -7.122,-9.544c-24.675,-39.818 9.57,-44.52 9.57,-44.52c2.448,0 2.782,-0.473 2.782,-0.473l1.085,-0.195l0.417,0l2.476,-0.612l0.417,0l1.502,-0.473l1.03,-0.362l0.333,-0.139l0.946,-0.362l0.724,-0.306l0.695,-0.306c1.433,-0.66 2.827,-1.403 4.173,-2.226c2.699,-1.805 5.174,-3.926 7.372,-6.316c0.528,-0.529 1.057,-1.086 1.558,-1.642c1.242,-1.389 2.368,-2.878 3.366,-4.452c0.389,-0.612 0.751,-1.252 1.113,-1.864c1.061,-1.912 1.928,-3.926 2.587,-6.011c0.222,-0.695 0.417,-1.419 0.584,-2.142c0,0 0,-0.139 0,-0.195c0,-0.056 0,-0.64 0.195,-0.974c0.089,-0.338 0.154,-0.682 0.194,-1.03l0,-0.5l0,-0.668c-0.013,-0.092 -0.013,-0.186 0,-0.278c0.014,-0.167 0.014,-0.335 0,-0.501c0,-0.446 0,-0.863 0,-1.28c0,-0.418 0,-0.835 0,-1.28c0,-0.306 0,-0.64 0,-0.946c0.014,-0.204 0.014,-0.409 0,-0.612c0,-0.167 0,-0.306 0,-0.446l0,-0.278c0.013,-0.241 0.013,-0.482 0,-0.723l0,-0.14c0,-0.194 0,-0.389 0,-0.556c-0.015,-0.176 -0.015,-0.353 0,-0.529c0,0 0,-0.306 0,-0.445c0,-0.139 0,-0.529 0,-0.807l-0.167,-0.946l-0.166,-0.835c0,-0.306 0,-0.64 -0.223,-0.946c-0.167,-0.649 -0.362,-1.317 -0.584,-2.003c-0.167,-0.501 -0.334,-1.002 -0.529,-1.503c-0.542,-1.393 -1.155,-2.759 -1.836,-4.09c-0.075,-0.115 -0.141,-0.236 -0.195,-0.362c-0.166,-0.334 -0.361,-0.64 -0.556,-0.974l-0.278,-0.473l-0.334,-0.528l-0.278,-0.39l-0.223,-0.362l-0.612,-0.918l-0.167,-0.25l-0.361,-0.557l-1.057,-1.614c0,0 -0.529,-0.751 -0.807,-1.14l-0.362,-0.501l-0.64,-0.863c-0.278,-0.39 -0.556,-0.779 -0.862,-1.141l-0.306,-0.361l-0.723,-0.946l-0.473,-0.557l-0.556,-0.696l-0.362,-0.417c-0.167,-0.195 -0.306,-0.418 -0.473,-0.584c-0.167,-0.167 -0.612,-0.724 -0.946,-1.058l-0.167,-0.222c-0.306,-0.334 -0.584,-0.668 -0.918,-1.002l0,-0.167l-0.862,-0.918c-0.306,-0.334 -0.612,-0.696 -0.946,-1.03l-0.584,-0.612l-0.39,-0.417c-0.317,-0.286 -0.615,-0.592 -0.89,-0.919l-0.389,-0.361l-0.918,-0.919l-1.308,-1.279l-0.834,-0.78l-1.558,-1.502l-0.64,-0.612l-1.836,-1.698l-0.417,-0.361l-2.198,-2.004l-1.753,-1.53l-0.918,-0.835l-0.306,-0.25c-0.584,-0.585 -1.196,-1.113 -1.808,-1.642l-0.167,-0.139l-6.899,-6.15c0,0 0,0 0,-0.139c-12.24,-11.13 -24.731,-21.842 -37.528,-32.249l-0.417,-0.362c-3.431,-2.782 -6.871,-5.565 -10.321,-8.347l-1.752,-1.392c-3.533,-2.782 -7.038,-5.565 -10.599,-8.1804l-0.751,-0.5565c-7.586,-5.732 -15.282,-11.2971 -23.09,-16.6952l-0.195,0l-5.007,-3.4503c-1.947,-1.3356 -3.95,-2.7825 -5.925,-3.979c-8.884,-5.899 -17.934,-11.5383 -27.152,-16.9178l-0.278,-0.167c-4.599,-2.6712 -9.236,-5.2868 -13.909,-7.8467l-0.278,-0.1391c-4.674,-2.5321 -9.403,-5.0087 -14.188,-7.3738l-8.318,-5.5372l-1.752,-0.8347l-5.342,-2.4765l-0.556,-0.2782l-5.564,-2.4765l-0.528,-0.2227l-3.923,-1.6973l-0.834,-0.3617l-5.258,-2.1705l-0.473,-0.1946l-0.25,0c-2.226,-0.9182 -4.451,-1.8086 -6.705,-2.7825l-0.361,0l-0.306,0l-4.034,-1.5027l-4.117,-1.6973l-1.892,-0.6678l-1.335,-0.4729c-1.725,-0.6122 -3.45,-1.2244 -5.174,-1.7809l-0.223,0l-5.925,-1.92c-3.144,-1.0017 -6.315,-1.9756 -9.487,-2.7825l-5.341,-1.5027l-1.752,-0.44509l-4.424,-1.14076l-3.254,-0.80705l-5.091,-1.19646l-1.224,-0.27819l-5.258,-1.11308c-0.244,-0.082 -0.495,-0.13796 -0.751,-0.16694c-2.031,-0.41738 -4.062,-0.80689 -6.12,-1.16862l-0.473,0l-1.002,-0.16694l-2.169,-0.3896l-1.364,-0.22265l-3.31,-0.52869l-1.947,-0.27818c-1.002,-0.16695 -1.975,-0.334 -2.949,-0.4453l-0.89,0l-3.645,-0.47298l-2.253,-0.27819l-0.528,0l-5.063,-0.50083l-0.39,0l-4.952,-0.41745l-0.5,0l-4.952,0.41745l-0.39,0l-5.063,0.50083l-0.528,0l-2.254,0.27819l-3.644,0.47298l-0.89,0c-0.974,0 -1.947,0.27835 -2.949,0.4453l-1.947,0.27818l-3.311,0.52869l-1.363,0.22265l-2.17,0.3896l-1.001,0.16694l-0.473,0c-2.058,0.36173 -4.089,0.75124 -6.12,1.16862c-0.256,0.02898 -0.507,0.08494 -0.751,0.16694l-5.258,1.11308l-1.224,0.27819l-5.091,1.19646l-3.255,0.80705l-4.423,1.14076l-1.752,0.44509l-5.342,1.5027c-3.171,0.8904 -6.342,1.8643 -9.486,2.7825l-5.925,1.92l-0.223,0c-1.724,0.5565 -3.449,1.1687 -5.174,1.7809l-1.335,0.4729l-1.892,0.6678l-4.173,1.5582l-4.034,1.5025l-0.306,0l-0.361,0c-2.253,0.8626 -4.479,1.753 -6.704,2.7826l-0.251,0l-0.473,0.1948l-5.258,2.1704l-0.834,0.3618l-3.923,1.6973l-0.528,0.2226l-5.564,2.4763l-0.556,0.2784l-5.341,2.4765l-1.753,0.8347l-7.122,3.4503c-4.785,2.3652 -9.514,4.8417 -14.187,7.3738l-0.278,0.1391c-4.73,2.5599 -9.366,5.1755 -13.91,7.8467l-0.278,0.167c-9.273,5.361 -18.323,11.0001 -27.151,16.9176c-1.975,1.3078 -3.978,2.6436 -5.926,3.9792l-5.007,3.4503l-0.195,0c-7.789,5.4167 -15.485,10.9817 -23.089,16.6952l-0.751,0.5563c-3.561,2.7826 -7.066,5.5656 -10.599,8.1806l-1.753,1.391c-3.449,2.727 -6.89,5.51 -10.321,8.348l-0.417,0.362c-12.797,10.406 -25.287,21.203 -37.527,32.249l-0.14,0.139c-2.281,2.059 -4.59,4.091 -6.926,6.15l-0.14,0.139c-0.612,0.529 -1.224,1.057 -1.808,1.642l-0.306,0.25l-0.918,0.835l-1.752,1.53l-2.198,2.004l-0.417,0.361l-1.836,1.698l-0.64,0.612l-1.558,1.502l-0.835,0.779l-1.307,1.28l-0.918,0.919l-0.39,0.361c-0.275,0.327 -0.572,0.633 -0.89,0.919l-0.389,0.417l-0.585,0.612l-0.973,1.03l-0.835,0.918l-0.139,0.167c-0.334,0.334 -0.612,0.668 -0.918,1.002l-0.167,0.222c-0.334,0.334 -0.64,0.696 -0.946,1.058c-0.306,0.361 -0.306,0.389 -0.473,0.584l-0.361,0.417l-0.557,0.696l-0.472,0.556l-0.724,0.947l-0.306,0.361c-0.306,0.362 -0.584,0.751 -0.862,1.141l-0.64,0.863l-0.362,0.5c-0.278,0.39 -0.556,0.752 -0.806,1.141l-1.057,1.614l-0.362,0.557l-0.167,0.25l-0.612,0.918l-0.223,0.362l-0.278,0.39l-0.334,0.528l-0.278,0.473c-0.195,0.334 -0.389,0.64 -0.556,0.974c-0.054,0.126 -0.119,0.247 -0.195,0.362c-0.681,1.331 -1.294,2.696 -1.836,4.09c-0.195,0.501 -0.362,1.002 -0.528,1.503c-0.167,0.501 -0.418,1.363 -0.585,2.003c0,0.306 -0.167,0.64 -0.222,0.946l-0.167,0.835l-0.167,0.946c0,0.279 0,0.557 0,0.807c0,0.251 0,0.306 0,0.445c0.015,0.176 0.015,0.353 0,0.529c0,0.167 0,0.362 0,0.556l0,0.14c-0.013,0.241 -0.013,0.482 0,0.723c0,0 0,0.167 0,0.278c0.013,0.149 0.013,0.297 0,0.446c-0.014,0.203 -0.014,0.408 0,0.612c0,0 0,0.64 0,0.946c0,0.445 0,0.862 0,1.28c0,0.417 0,0.834 0,1.28c-0.014,0.166 -0.014,0.334 0,0.5c0.014,0.093 0.014,0.187 0,0.279l0,0.668l0,0.5c0.04,0.348 0.106,0.692 0.195,1.03c0,0.334 0,0.64 0.194,0.974c0.195,0.334 0,0 0,0.195c0.167,0.723 0.362,1.447 0.585,2.142c0.67,2.081 1.537,4.093 2.587,6.011c0.361,0.612 0.723,1.252 1.112,1.864c0.999,1.574 2.125,3.063 3.367,4.452c0.5,0.556 1.029,1.113 1.557,1.642c2.211,2.202 4.665,4.143 7.317,5.787c1.346,0.823 2.739,1.566 4.173,2.226l0.695,0.306l0.723,0.306l0.946,0.362l0.334,0.139l1.029,0.362l1.502,0.473l0.418,0l2.476,0.612l0.417,0l1.085,0.195c0,0 0.195,0.473 2.643,0.473c0,0 18.527,2.476 18.527,19.617c0,6.177 -2.42,14.246 -8.958,24.792c-2.476,3.117 -4.868,6.316 -7.121,9.544c-0.081,0.097 -0.156,0.199 -0.223,0.306l-1.891,2.783l-0.668,1.029c-0.557,0.863 -1.141,1.725 -1.669,2.588c-0.278,0.39 -0.501,0.807 -0.751,1.224c-1.085,1.698 -2.142,3.451 -3.144,5.204l-0.417,0.751c-0.39,0.668 -0.724,1.336 -1.085,2.031c-0.362,0.696 -0.723,1.308 -1.085,1.976c-0.362,0.668 -0.668,1.28 -0.974,1.92l-1.057,2.226l-0.834,1.781c-0.418,0.946 -0.835,1.864 -1.224,2.782c-0.167,0.418 -0.362,0.807 -0.501,1.197c-0.529,1.307 -1.057,2.782 -1.53,3.979c-0.139,0.445 -0.278,0.89 -0.445,1.335c-0.334,0.946 -0.64,1.892 -0.918,2.783c-0.167,0.473 -0.306,0.974 -0.445,1.447c-0.279,0.974 -0.529,1.947 -0.751,2.782c-0.14,0.445 -0.251,0.863 -0.362,1.308c-0.306,1.391 -0.612,2.783 -0.863,4.174l-0.25,0c-0.013,0.064 -0.013,0.13 0,0.195c0,0.473 -0.167,0.918 -0.222,1.391l0,0.473c-0.557,3.589 -1.113,7.207 -1.642,10.824c-0.528,3.617 -1.112,7.179 -1.697,10.768c0,0 0,0.306 0,0.473c-1.168,7.485 -2.364,14.943 -3.56,22.428c-0.613,3.812 -1.225,7.624 -1.809,11.408l-0.417,2.226c0,0.25 0,0.501 -0.139,0.723c-0.25,1.252 -0.501,2.533 -0.723,3.785l0,0.389l-0.167,0.863c0,0.667 -0.251,1.308 -0.362,1.975l-0.668,3.618l-0.584,3.227c-0.195,1.086 -0.361,2.171 -0.556,3.284c0,0.389 -0.167,0.835 -0.223,1.252c-0.055,0.417 -0.139,0.807 -0.194,1.224c-0.056,0.418 -0.14,0.751 -0.195,1.113c-0.251,1.475 -0.501,2.978 -0.751,4.424c0,0.835 -0.279,1.642 -0.39,2.449c0,0.362 -0.139,0.724 -0.195,1.057c0.027,0.185 0.027,0.372 0,0.557l-0.584,3.812l-0.167,1.224l0,0.501l0,0.529l-0.167,1.057l0,0.195c0,0.334 0,0.612 0,0.946c-0.194,1.224 -0.361,2.449 -0.528,3.701l-0.334,2.254c0.014,0.148 0.014,0.297 0,0.445c-0.195,1.419 -0.362,2.782 -0.556,4.257c-0.003,0.047 -0.003,0.093 0,0.139l-0.334,2.532c0,0.863 -0.223,1.753 -0.306,2.588c-0.084,0.835 -0.167,1.197 -0.223,1.781c-0.055,0.584 -0.194,1.725 -0.306,2.588c-0.278,2.337 -0.5,4.702 -0.751,7.067l0,0.195l0,0.946c-0.195,1.781 -0.361,3.59 -0.501,5.37c0,0.195 0,0.39 0,0.557c0,0.167 0.001,1.085 -0.139,1.642c0,1.558 -0.25,3.116 -0.361,4.674l0,0.473c0,0.195 0,0.334 0,0.501c0,0.167 0,1.113 0,1.67c0,0.556 0,0.584 0,0.89c-0.139,1.753 -0.223,3.478 -0.334,5.231c0,0.306 0,0.64 0,0.974c-0.139,2.532 -0.278,5.092 -0.362,7.652c-0.083,2.56 -0.139,4.397 -0.167,6.595c0,0.723 0,1.474 0,2.226c0,1.53 0,3.061 0,4.563c0,0.863 0,1.753 0,2.616c0,0.862 0,1.057 0,1.586l0,1.641c0,0.891 0,1.753 0,2.783l0,0.723c0,0.418 0,0.835 0,1.253c0,2.393 0,4.813 0,7.234c0,6.901 0.223,13.755 0.668,20.563c0,0.39 0,0.723 0,1.113c0.167,3.172 0.417,6.344 0.695,9.516l0,1.03c0.223,2.421 0.446,4.841 0.696,7.262c0.25,2.421 0.473,4.341 0.723,6.511c0,0.306 0,0.64 0,0.946c0.167,1.419 0.334,2.783 0.529,4.23c0.195,1.447 0.306,2.281 0.445,3.422c0.528,3.701 1.085,7.43 1.697,11.13c0.013,0.241 0.013,0.483 0,0.724l0.834,4.897c0.014,0.213 0.014,0.427 0,0.64c0.705,3.951 1.456,7.902 2.254,11.854l0.834,4.118c0.223,1.057 0.473,2.142 0.724,3.228c0.25,1.085 0.639,3.005 0.973,4.507c0,0.418 0.195,0.835 0.278,1.252l0.167,0.696c0.06,0.182 0.106,0.368 0.139,0.557c0.418,1.725 0.807,3.478 1.224,5.175c0.167,0.807 0.39,1.586 0.585,2.365l0.333,1.503l0.334,1.28c1.855,7.16 3.774,14.265 5.759,21.314c1.854,6.511 3.811,13.004 5.87,19.478c1.446,4.507 2.921,9.015 4.451,13.467c0,0.223 0.139,0.473 0.222,0.696c0.084,0.222 0.251,0.723 0.362,1.085c0.862,2.504 1.697,5.008 2.587,7.513c0,0.25 0.195,0.528 0.278,0.807l0.334,0.973c0.751,2.171 1.53,4.341 2.309,6.512l0.668,1.892l0.695,1.947l0.974,2.783c1.112,3.116 2.253,6.233 3.394,9.322c2.114,5.565 4.228,11.352 6.398,17.029c0.167,0.501 0.361,1.029 0.556,1.53l3.533,9.266c1.892,4.925 3.756,9.878 5.564,14.859c0.529,1.419 1.057,2.782 1.613,4.229c0,0.223 0.001,0.445 0.223,0.668c1.934,5.768 4.162,11.433 6.677,16.973c10.376,22.873 25.036,43.241 39.502,63.331c4.006,5.565 8.012,11.13 11.934,16.695l0.529,0.751c1.168,2.059 2.337,4.174 3.366,6.289c0.473,0.974 0.918,1.947 1.363,2.921l0.64,1.475l0.668,1.669c0.043,0.153 0.098,0.302 0.167,0.446l0.473,1.391c0.507,1.457 0.925,2.944 1.251,4.452c0.129,0.467 0.231,0.941 0.306,1.419l0.251,1.391c0,0.501 0.139,1.002 0.167,1.531c0.026,0.352 0.026,0.705 0,1.057c0,0.529 0,1.057 0,1.558c0.09,2.73 -0.421,5.447 -1.498,7.957c-1.077,2.51 -2.693,4.752 -4.734,6.568c-0.806,0.863 -1.641,1.697 -2.448,2.532c-0.807,0.835 -1.307,1.336 -2.003,1.976c-1.196,1.224 -2.42,2.365 -3.672,3.533l-2.782,2.616l-2.197,1.976l-4.257,3.673c-0.751,0.612 -1.446,1.224 -2.197,1.808c-2.476,2.059 -4.98,4.063 -7.511,6.038l-0.779,0.613l-5.564,4.229l-0.139,0l-9.653,7.235l-6.482,4.813c-10.383,7.285 -20.212,15.33 -29.405,24.069c-0.778,0.751 -1.502,1.503 -2.197,2.282c-0.696,0.779 -0.807,0.835 -1.196,1.28l-0.418,0.445l-0.361,0.418l-0.696,0.779c-0.334,0.389 -0.667,0.751 -0.973,1.168l-0.557,0.612l-0.668,0.835l-0.333,0.39c-0.195,0.25 -0.39,0.528 -0.612,0.779l-0.362,0.473c-0.417,0.529 -0.835,1.113 -1.252,1.669l-0.89,1.253l-0.751,1.057l-1.308,2.003c-0.278,0.473 -0.612,0.946 -0.89,1.447c-0.278,0.501 -0.667,1.113 -0.973,1.67c-0.306,0.556 -0.696,1.196 -1.03,1.836l-0.473,0.946c-0.417,0.807 -0.834,1.614 -1.224,2.477c-4.594,9.622 -6.239,20.382 -4.729,30.942c1.657,3.69 3.65,7.22 5.953,10.55c1.808,2.78 3.811,5.2 5.898,7.67l0.751,0.9c0.723,0.86 1.474,1.69 2.225,2.56c1.169,1.3 2.337,2.58 3.534,3.86c0.255,0.25 0.496,0.51 0.723,0.78l0.612,0.61l3.366,3.54c2.977,3.06 5.925,6.04 8.735,9.01c9.792,10.35 19.668,20.68 29.516,30.97l14.799,15.47l14.8,15.45c19.714,20.61 39.447,41.22 59.198,61.82l9.208,9.58c0.362,0.41 0.779,0.8 1.169,1.22l1.919,2l6.232,6.4l6.287,6.35c3.431,3.43 6.899,6.81 10.404,10.13l2.281,2.17c0.807,0.75 1.586,1.47 2.392,2.17c3.589,3.31 7.205,6.56 10.933,9.74l3.227,2.78l0.195,0l5.564,3.67l0.361,0.22l2.504,1.62c1.697,1.08 3.366,2.14 5.063,3.14l0.696,0.48l2.781,1.67l2.087,1.22l1.001,0.61l0.807,0.47l4.729,2.79l0.306,0.19l2.782,1.59c2.392,1.33 4.813,2.61 7.261,3.87l1.78,0.89l4.256,2.11l1.447,0.67l0.445,0.22l2.782,1.31l0.946,0.44l2.337,1.03l1.752,0.75l1.113,0.48l2.532,1.06l0.751,0.3l0.222,0c0.417,0.19 0.844,0.36 1.28,0.5l1.641,0.67c1.391,0.56 2.782,1.09 4.229,1.56l1.001,0.39l1.029,0.36l3.172,1.06c7.387,2.45 14.934,4.4 22.589,5.81c2.197,0.42 4.367,0.78 6.593,1.12c4.228,0.58 8.484,1 12.713,1.22c4.228,-0.22 8.345,-0.64 12.713,-1.22c2.225,-0.34 4.395,-0.7 6.593,-1.12c7.654,-1.41 15.202,-3.36 22.589,-5.81l3.171,-1.06l1.03,-0.36l1.001,-0.39c1.419,-0.47 2.782,-1 4.228,-1.56l1.642,-0.67c0.435,-0.14 0.863,-0.31 1.279,-0.5l0.223,0l0.751,-0.3l2.532,-1.06l1.112,-0.48l1.753,-0.75l2.337,-1.03l0.946,-0.44l2.781,-1.31l0.446,-0.22l1.446,-0.67l4.256,-2.11l1.781,-0.89c2.448,-1.26 4.868,-2.54 7.261,-3.87l2.781,-1.59l0.306,-0.19l4.73,-2.79l0.806,-0.47l1.002,-0.61l2.086,-1.22l2.782,-1.67l0.696,-0.48c1.697,-1 3.366,-2.06 5.063,-3.14l2.503,-1.62l0.362,-0.22l5.564,-3.67l0.167,0l3.254,-2.78c3.728,-3.18 7.345,-6.43 10.933,-9.74c0.807,-0.7 1.586,-1.42 2.393,-2.17l2.281,-2.17c3.505,-3.34 6.973,-6.72 10.404,-10.13l6.287,-6.35l6.231,-6.4l1.92,-2c0.389,-0.42 0.807,-0.81 1.168,-1.22l9.208,-9.58l59.199,-61.82l14.799,-15.45l14.8,-15.47c9.848,-10.29 19.723,-20.62 29.516,-30.97c2.782,-2.97 5.758,-5.95 8.735,-9.01l3.366,-3.54l0.612,-0.61c0.226,-0.27 0.468,-0.53 0.723,-0.78c1.196,-1.28 2.365,-2.56 3.533,-3.86c0.751,-0.87 1.502,-1.7 2.226,-2.56l0.751,-0.9c2.086,-2.47 4.089,-5.03 5.897,-7.67c2.304,-3.33 4.297,-6.86 5.954,-10.55c1.51,-10.56 -0.136,-21.32 -4.73,-30.942c-0.389,-0.863 -0.806,-1.67 -1.224,-2.477l-0.473,-0.946c-0.333,-0.64 -0.667,-1.224 -1.029,-1.836c-0.362,-0.612 -0.64,-1.113 -0.974,-1.67c-0.333,-0.556 -0.612,-0.974 -0.89,-1.447c-0.278,-0.473 -0.89,-1.335 -1.307,-2.003l-0.751,-1.057l-0.89,-1.253c-0.418,-0.556 -0.835,-1.14 -1.252,-1.669l-0.362,-0.473c-0.223,-0.251 -0.417,-0.529 -0.612,-0.779l-0.334,-0.39l-0.668,-0.835l-0.556,-0.612c-0.306,-0.417 -0.64,-0.779 -0.974,-1.168l-0.695,-0.779l-0.362,-0.418l-0.417,-0.445c-0.39,-0.445 -0.779,-0.863 -1.196,-1.28c-0.418,-0.417 -1.419,-1.531 -2.198,-2.282c-9.193,-8.739 -19.021,-16.784 -29.404,-24.069l-6.482,-4.813l-9.653,-7.235l-0.139,0l-5.564,-4.229l-0.779,-0.613c-2.532,-1.975 -5.035,-3.979 -7.511,-6.038c-0.751,-0.584 -1.447,-1.196 -2.198,-1.808l-4.256,-3.673l-2.198,-1.976l-2.782,-2.616c-1.251,-1.168 -2.476,-2.309 -3.672,-3.533c-0.695,-0.64 -1.363,-1.308 -2.003,-1.976c-0.639,-0.668 -1.641,-1.669 -2.448,-2.532c-1.946,-1.613 -3.552,-3.597 -4.722,-5.838c-1.171,-2.241 -1.882,-4.693 -2.093,-7.212c-0.027,-0.352 -0.027,-0.705 0,-1.057c0,-0.501 0,-1.03 0.167,-1.531l0.25,-1.391c0.075,-0.479 0.177,-0.952 0.306,-1.419c0.325,-1.457 0.724,-2.897 1.196,-4.313l0.473,-1.391l0.167,-0.446l0.668,-1.669c0.222,-0.473 0.417,-0.974 0.64,-1.475c0.417,-0.974 0.89,-1.947 1.363,-2.921c1.196,-2.393 2.531,-4.758 3.894,-7.04c3.62,-5.84 7.645,-11.419 12.046,-16.695c14.493,-20.062 29.015,-40.347 39.363,-63.164l0,-0.334l1.002,-2.476c0.195,-0.473 0.362,-0.919 0.556,-1.364c0.195,-0.445 0.417,-1.085 0.64,-1.613c0.362,-0.974 0.751,-1.92 1.141,-2.783l3.227,-8.348l0.222,-0.584l1.586,-4.257c0.668,-1.781 1.363,-3.534 2.031,-5.315c1.196,-3.2 2.392,-6.372 3.616,-9.544l3.533,-9.266c0.195,-0.501 0.39,-1.029 0.556,-1.53c2.17,-5.565 4.285,-11.353 6.399,-17.029c1.14,-3.089 2.281,-6.205 3.394,-9.321l0.973,-2.783l0.696,-1.948l0.667,-1.892c0.779,-2.17 1.558,-4.341 2.309,-6.511l0.334,-0.974c0,-0.278 0.195,-0.557 0.278,-0.807c0.891,-2.504 1.725,-5.009 2.588,-7.513c0,-0.362 0.222,-0.723 0.361,-1.085c0.139,-0.362 0.139,-0.473 0.223,-0.696c1.53,-4.452 3.004,-8.959 4.451,-13.467c2.058,-6.455 4.015,-12.948 5.87,-19.478c2.058,-7.067 3.978,-14.172 5.758,-21.314l0.334,-1.28l0.334,-1.503c0.194,-0.779 0.417,-1.558 0.584,-2.365c0.417,-1.697 0.807,-3.45 1.224,-5.175c0.033,-0.189 0.079,-0.375 0.139,-0.557l0.167,-0.695c0,-0.418 0.195,-0.835 0.278,-1.252c0.334,-1.503 0.668,-3.006 0.974,-4.508c0.306,-1.503 0.5,-2.17 0.723,-3.228l0.835,-4.118c0.797,-3.951 1.548,-7.902 2.253,-11.854c-0.013,-0.213 -0.013,-0.426 0,-0.64l0.834,-4.897c-0.013,-0.241 -0.013,-0.482 0,-0.723c0.612,-3.701 1.169,-7.43 1.697,-11.13c0,-1.141 0.306,-2.282 0.445,-3.423c0.14,-1.141 0.362,-2.782 0.529,-4.229c0,-0.306 0,-0.64 0,-0.946c0.25,-2.171 0.501,-4.341 0.723,-6.512c0.223,-2.17 0.473,-4.841 0.696,-7.262l0,-1.029c0.278,-3.173 0.528,-6.345 0.695,-9.517c0,-0.389 0,-0.723 0,-1.113c0.408,-6.808 0.631,-13.662 0.668,-20.563c0.89,-3.005 0.89,-5.426 0.89,-7.819zm-502.268,-20.284c-51.993,20.674 -91.329,-31.999 -79.979,-77.911c11.35,-45.912 106.657,-43.992 147.3,0c12.497,13.981 26.231,26.805 41.033,38.316c1.106,0.822 1.945,1.952 2.412,3.248c0.468,1.296 0.543,2.702 0.217,4.041c-0.327,1.338 -1.041,2.552 -2.052,3.487c-1.012,0.936 -2.277,1.552 -3.637,1.773c-25.148,4.201 -69.992,13.022 -105.294,27.046zm288.87,246.56c-9.559,16.081 -23.865,28.805 -40.949,36.423c-51.298,23.457 -102.763,23.373 -153.782,-1.057c-14.82,-7.061 -27.451,-18.003 -36.554,-31.666c-12.88,-19.143 -9.904,-35.031 9.375,-48.109c17.748,-12.076 38.028,-17.725 58.753,-21.342c15.495,-2.783 31.352,-3.59 47.014,-5.287c31.296,1.252 61.674,5.899 90.272,18.837c6.743,3.054 13.087,6.923 18.889,11.52c14.02,11.13 16.218,25.238 6.982,40.681zm55.332,-246.56c-35.302,-13.913 -80.146,-22.845 -105.267,-27.046c-1.36,-0.221 -2.625,-0.837 -3.636,-1.773c-1.012,-0.935 -1.726,-2.149 -2.052,-3.487c-0.327,-1.339 -0.252,-2.745 0.216,-4.041c0.467,-1.296 1.307,-2.426 2.412,-3.248c14.817,-11.546 28.559,-24.407 41.061,-38.427c40.671,-43.992 136.006,-45.995 147.44,0c11.433,45.995 -28.153,98.696 -80.174,78.022z"/>
 </g>
</svg>